<?xml version="1.0"?>
<svg width="640" height="480" xmlns="http://www.w3.org/2000/svg" xmlns:svg="http://www.w3.org/2000/svg">
 <!-- Created with SVG-edit - https://github.com/SVG-Edit/svgedit-->
 <g class="layer">
  <title>Layer 1</title>
  <polygon cx="115.5" cy="137.899994" fill="#0dbf0d" id="svg_2" orient="point" point="5" points="104.5,66.53170776367188 120.5743408203125,112.77555084228516 169.5220947265625,113.77303314208984 130.5088348388672,143.3507843017578 144.6858673095703,190.21109008789062 104.5,162.247314453125 64.31413269042969,190.21109008789062 78.49115753173828,143.3507843017578 39.47789764404297,113.77303314208984 88.42565155029297,112.77555084228516 104.5,66.53170776367188 120.5743408203125,112.77555084228516 " r="68.368284" r2="27.347313" shape="star" stroke="#ffffff" stroke-width="5" strokeWidth="5" strokecolor="#ffffff"/>
  <polygon cx="360.5" cy="353.899994" fill="#0dbf0d" id="svg_3" orient="point" point="5" points="389.5,284.5000305175781 409.1085205078125,340.91119384765625 468.8180847167969,342.12799072265625 421.22723388671875,378.20880126953125 438.5212707519531,435.3719787597656 389.5,401.2599792480469 340.4787292480469,435.3719787597656 357.77276611328125,378.20880126953125 310.1819152832031,342.12799072265625 369.8914794921875,340.91119384765625 389.5,284.5000305175781 409.1085205078125,340.91119384765625 " r="83.399973" r2="33.359989" shape="star" stroke="#ffffff" stroke-width="5" strokeWidth="5" strokecolor="#ffffff"/>
  <polygon cx="419.5" cy="52.899994" fill="#0dbf0d" id="svg_4" orient="point" point="5" points="413.5,56.036569595336914 423.8128967285156,85.70549011230469 455.2165832519531,86.34545135498047 430.1866455078125,105.32181167602539 439.28228759765625,135.3862533569336 413.5,117.44536590576172 387.71771240234375,135.3862533569336 396.8133544921875,105.32181167602539 371.7834167480469,86.34545135498047 403.1871032714844,85.70549011230469 413.5,56.036569595336914 423.8128967285156,85.70549011230469 " r="43.863424" r2="17.54537" shape="star" stroke="#ffffff" stroke-width="5" strokeWidth="5" strokecolor="#ffffff"/>
  <polygon cx="552.5" cy="212.899994" fill="#0dbf0d" id="svg_5" orient="point" point="5" points="566.5,130.72474670410156 581.3533935546875,173.4560546875 626.583251953125,174.37777709960938 590.5332641601562,201.70887756347656 603.6334838867188,245.00982666015625 566.5,219.1700897216797 529.3665161132812,245.00982666015625 542.4667358398438,201.70887756347656 506.4167785644531,174.37777709960938 551.6466064453125,173.4560546875 566.5,130.72474670410156 581.3533935546875,173.4560546875 " r="63.175241" r2="25.270097" shape="star" stroke="#ffffff" stroke-width="5" strokeWidth="5" strokecolor="#ffffff"/>
  <polygon cx="33.5" cy="375.899994" fill="#0dbf0d" id="svg_7" orient="point" point="5" points="33.5,335.54049824937687 42.98908653253282,362.8393867513197 71.88416132956746,363.42822385712645 48.853664531826986,380.88870191222753 57.22271633133205,408.5515117593961 33.5,392.04379215532737 9.777283668667955,408.5515117593961 18.146335468173014,380.88870191222753 -4.884161329567469,363.42822385712645 24.010913467467176,362.8393867513197 33.49999999999999,335.54049824937687 42.989086532532816,362.8393867513197 " r="40.359496" r2="16.143798" shape="star" stroke="#ffffff" stroke-width="5" strokeWidth="5" strokecolor="#ffffff"/>
  <polygon cx="558.5" cy="412.899994" fill="#0dbf0d" id="svg_8" orient="point" point="5" points="570.5,369.4102478027344 583.5464477539062,406.9431457519531 623.2738647460938,407.7527160644531 591.6095581054688,431.7589111328125 603.1160278320312,469.7921447753906 570.5,447.09588623046875 537.8839721679688,469.7921447753906 549.3904418945312,431.7589111328125 517.7261352539062,407.7527160644531 557.4535522460938,406.9431457519531 570.5,369.4102478027344 583.5464477539062,406.9431457519531 " r="55.489739" r2="22.195896" shape="star" stroke="#ffffff" stroke-width="5" strokeWidth="5" strokecolor="#ffffff"/>
  <polygon cx="303.5" cy="178.899994" fill="#0dbf0d" id="svg_11" orient="point" point="5" points="292.5,143.86874389648438 307.5546569824219,187.17904663085938 353.3973388671875,188.11325073242188 316.8589172363281,215.814697265625 330.1366271972656,259.7023620605469 292.5,233.5124969482422 254.86337280273438,259.7023620605469 268.1410827636719,215.814697265625 231.60267639160156,188.11325073242188 277.4453430175781,187.17904663085938 292.5,143.86874389648438 307.5546569824219,187.17904663085938 " r="64.031242" r2="25.612497" shape="star" stroke="#ffffff" stroke-width="5" strokeWidth="5" strokecolor="#ffffff"/>
  <polygon cx="156.5" cy="442.899994" fill="#0dbf0d" id="svg_13" orient="point" point="5" points="172.5,395.02459716796875 184.22640991210938,428.7599792480469 219.934326171875,429.4876403808594 191.47372436523438,451.06494140625 201.81602478027344,485.2500305175781 172.5,464.85015869140625 143.18397521972656,485.2500305175781 153.52627563476562,451.06494140625 125.065673828125,429.4876403808594 160.77359008789062,428.7599792480469 172.5,395.02459716796875 184.22640991210938,428.7599792480469 " r="49.8754" r2="19.95016" shape="star" stroke="#ffffff" stroke-width="5" strokeWidth="5" strokecolor="#ffffff"/>
  <polygon cx="138.5" cy="290.899994" fill="#0dbf0d" id="svg_16" orient="point" point="5" points="128.5,242.49278259277344 138.94076538085938,272.5295104980469 170.7337646484375,273.1773986816406 145.3935089111328,292.3890380859375 154.60189819335938,322.826171875 128.5,304.6628723144531 102.39810180664062,322.826171875 111.60649108886719,292.3890380859375 86.2662353515625,273.1773986816406 118.05923461914062,272.5295104980469 128.5,242.49278259277344 138.94076538085938,272.5295104980469 " r="44.407207" r2="17.762883" shape="star" stroke="#ffffff" stroke-width="5" strokeWidth="5" strokecolor="#ffffff"/>
  <polygon cx="555.5" cy="48.899994" fill="#0dbf0d" id="svg_17" orient="point" point="5" points="566.5,0.3491783142089844 574.1531372070312,22.366329193115234 597.4576416015625,22.84123992919922 578.883056640625,36.92349624633789 585.6328735351562,59.234153747558594 566.5,45.920318603515625 547.3671264648438,59.234153747558594 554.116943359375,36.92349624633789 535.5423583984375,22.84123992919922 558.8468627929688,22.366329193115234 566.5,0.3491783142089844 574.1531372070312,22.366329193115234 " r="32.550815" r2="13.020326" shape="star" stroke="#ffffff" stroke-width="5" strokeWidth="5" strokecolor="#ffffff"/>
  <polygon cx="204.5" cy="31.899994" fill="#0dbf0d" id="svg_20" orient="point" point="5" points="205.5,-1.7092080116271973 214.81268310546875,25.08218765258789 243.17059326171875,25.660078048706055 220.5682373046875,42.79595947265625 228.78170776367188,69.94451141357422 205.5,53.743675231933594 182.21829223632812,69.94451141357422 190.4317626953125,42.79595947265625 167.82940673828125,25.660078048706055 196.18731689453125,25.08218765258789 205.5,-1.7092080116271973 214.81268310546875,25.08218765258789 " r="39.609202" r2="15.843681" shape="star" stroke="#ffffff" stroke-width="5" strokeWidth="5" strokecolor="#ffffff"/>
 </g>
</svg>